<svg id="Adobe_Logo" data-name="Adobe Logo" xmlns="http://www.w3.org/2000/svg" xmlns:xlink="http://www.w3.org/1999/xlink" width="165.154" height="38" viewBox="0 0 165.154 38">
  <defs>
    <clipPath id="clip-path">
      <path id="Clip_11" data-name="Clip 11" d="M0,0H5.14V6.536H0Z" fill="none"/>
    </clipPath>
    <clipPath id="clip-path-2">
      <path id="Clip_24" data-name="Clip 24" d="M0,35.077H152V0H0Z" fill="none"/>
    </clipPath>
  </defs>
  <g id="Group_57" data-name="Group 57" transform="translate(6.577 1.462)">
    <path id="Fill_1" data-name="Fill 1" d="M0,0V22.654L9.5,0Z" fill="#ff2429"/>
    <path id="Fill_2" data-name="Fill 2" d="M0,0,9.5,22.654V0Z" transform="translate(16.808)" fill="#ff2429"/>
    <path id="Fill_3" data-name="Fill 3" d="M4.554,9.456,6.24,13.885h3.99L4.16,0,0,9.456Z" transform="translate(8.769 8.769)" fill="#ff2429"/>
    <path id="Fill_4" data-name="Fill 4" d="M0,35.077H.731V0H0Z" transform="translate(38.731)" fill="#a7a9ac"/>
    <path id="Fill_5" data-name="Fill 5" d="M1.54,2.564V1.226H4.265V0H0V6.577H4.385V5.351H1.54V3.791H4.147V2.564Z" transform="translate(133.731 8.038)" fill="#a7a9ac"/>
    <g id="Group_56" data-name="Group 56">
      <path id="Fill_6" data-name="Fill 6" d="M1.453,6.649H0V.221A8.036,8.036,0,0,1,2.068,0,2.744,2.744,0,0,1,4.026.61a1.742,1.742,0,0,1,.723,1.438,2.216,2.216,0,0,1-.612,1.609,2.96,2.96,0,0,1-2.182.72h-.5V6.648Zm0-5.429V3.158l.5.11a1.545,1.545,0,0,0,1-.282A1.011,1.011,0,0,0,3.3,2.162c0-.625-.413-.942-1.228-.942Z" transform="translate(126.182 8.147)" fill="#a7a9ac"/>
      <path id="Fill_8" data-name="Fill 8" d="M1.508,6.649H0V.221L1.957,0A3.792,3.792,0,0,1,4.189.608a1.419,1.419,0,0,1,.617,1.33,1.39,1.39,0,0,1-1.23,1.553v.166c.32.053.649.451,1,1.219l.447,1.772H3.466L3.072,5.1c-.219-.653-.6-1-1.115-1H1.508V6.649Zm0-5.431V3.046h.616c.828,0,1.23-.325,1.23-1,0-.545-.386-.833-1.117-.833Z" transform="translate(140.097 8.147)" fill="#a7a9ac"/>
      <g id="Group_12" data-name="Group 12" transform="translate(146.86 8.257)">
        <path id="Clip_11-2" data-name="Clip 11" d="M0,0H5.14V6.536H0Z" transform="translate(0)" fill="none"/>
        <g id="Group_12-2" data-name="Group 12" transform="translate(0)" clip-path="url(#clip-path)">
          <path id="Fill_10" data-name="Fill 10" d="M3.3,1.219H5.141V0H0V1.219H1.843V6.536H3.3Z" fill="#a7a9ac"/>
        </g>
      </g>
      <path id="Fill_13" data-name="Fill 13" d="M4.024,0H0V6.539H4.134V5.32H1.451V3.766h2.46V2.549H1.451V1.22H4.024Z" transform="translate(57.223 8.256)" fill="#a7a9ac"/>
      <path id="Fill_15" data-name="Fill 15" d="M5.311.221,3.69,0Q0,0,0,3.491C0,5.706,1.177,6.815,3.466,6.815L5.2,6.538,5.03,5.319,3.69,5.6c-1.4,0-2.066-.72-2.066-2.215,0-1.443.67-2.162,2.066-2.162l1.227.221Z" transform="translate(49.454 8.147)" fill="#a7a9ac"/>
      <path id="Fill_17" data-name="Fill 17" d="M1.454,6.647H0V.221A8.174,8.174,0,0,1,1.955,0,4.074,4.074,0,0,1,4.192.608,1.418,1.418,0,0,1,4.8,1.938,1.382,1.382,0,0,1,3.577,3.489v.166c.377.054.66.464.839,1.219L5.03,6.646H3.409L2.962,5.1a1,1,0,0,0-1.117-1H1.454V6.647Zm0-5.428V3.046h.612c.741,0,1.117-.336,1.117-1,0-.55-.376-.829-1.117-.829Z" transform="translate(63.929 8.147)" fill="#a7a9ac"/>
      <path id="Fill_19" data-name="Fill 19" d="M0,1.219H1.676V6.536H3.3V1.219H5.141V0H0Z" transform="translate(70.691 8.257)" fill="#a7a9ac"/>
      <path id="Fill_21" data-name="Fill 21" d="M1.453,2.66V1.22H4.026V0H0V6.539H1.453V3.88h2.46V2.66Z" transform="translate(82.312 8.256)" fill="#a7a9ac"/>
      <path id="Clip_24-2" data-name="Clip 24" d="M0,35.077H152V0H0Z" fill="none"/>
      <g id="Mask_Group_1" data-name="Mask Group 1" clip-path="url(#clip-path-2)">
        <path id="Fill_23" data-name="Fill 23" d="M0,6.541H1.453V0H0Z" transform="translate(78.012 8.256)" fill="#a7a9ac"/>
        <path id="Fill_25" data-name="Fill 25" d="M0,6.541H1.508V0H0Z" transform="translate(89.021 8.256)" fill="#a7a9ac"/>
        <path id="Fill_26" data-name="Fill 26" d="M1.453,2.549V1.219H4.024V0H0V6.538H4.189V5.32H1.453V3.769h2.46V2.549Z" transform="translate(93.322 8.257)" fill="#a7a9ac"/>
        <path id="Fill_27" data-name="Fill 27" d="M1.676,6.813,0,6.647V.221L1.955,0A4.176,4.176,0,0,1,4.749.719a3.014,3.014,0,0,1,1.12,2.549,3.625,3.625,0,0,1-1.12,2.66A5.041,5.041,0,0,1,1.676,6.813Zm-.224-5.6V5.6h.5A2.047,2.047,0,0,0,4.247,3.268,1.809,1.809,0,0,0,2.181,1.217Z" transform="translate(100.084 8.148)" fill="#a7a9ac"/>
        <path id="Fill_28" data-name="Fill 28" d="M4.3,6.538V5.319H1.619V3.768h2.4V2.549h-2.4V1.219H4.189V0H0V6.538Z" transform="translate(111.822 8.257)" fill="#a7a9ac"/>
        <path id="Fill_29" data-name="Fill 29" d="M5.643,0H3.913L2.907,2.328,1.845,0H.113L1.955,3.271,0,6.539H1.735L2.794,4.266l1.23,2.273H5.756L3.8,3.16Z" transform="translate(118.078 8.256)" fill="#a7a9ac"/>
        <path id="Fill_30" data-name="Fill 30" d="M1.34,8.091H0L1.676,0H3.521L5.14,8.089H3.632L3.3,6.151H1.787L1.34,8.09ZM2.57,1.328h0l-.615,3.6h1.23l-.615-3.6Z" transform="translate(0.391 26.986)" fill="#a7a9ac"/>
        <path id="Fill_31" data-name="Fill 31" d="M2.4,6.042C.786,6.042,0,5.1,0,3.156A3.5,3.5,0,0,1,.725.83,1.875,1.875,0,0,1,2.289,0a1.821,1.821,0,0,1,1.56.7A3.489,3.489,0,0,1,4.36,2.771l-.113.721H1.453A1.639,1.639,0,0,0,1.79,4.611a1.284,1.284,0,0,0,1,.375l1.117-.275.113,1.106L2.4,6.042ZM2.289,1.107c-.555,0-.836.485-.836,1.442H2.907a2.841,2.841,0,0,0-.16-1.07C2.642,1.232,2.488,1.107,2.289,1.107Z" transform="translate(21.458 29.036)" fill="#a7a9ac"/>
        <path id="Fill_32" data-name="Fill 32" d="M1.227,8.366H0V0H1.453V3.047a1.65,1.65,0,0,1,1.34-.721c1.076,0,1.621.969,1.621,2.881a4.838,4.838,0,0,1-.46,2.37,1.507,1.507,0,0,1-1.384.79,1.412,1.412,0,0,1-1.23-.718l-.114.718Zm.95-4.709a.556.556,0,0,0-.613.609l-.11.333V6.207c0,.284.057.385.11.385.052.472.264.721.613.721.491,0,.73-.635.73-1.94C2.907,4.2,2.675,3.657,2.177,3.657Z" transform="translate(16.428 26.709)" fill="#a7a9ac"/>
        <path id="Fill_33" data-name="Fill 33" d="M4.526,8.366H3.185l-.113-.719a1.291,1.291,0,0,1-1.227.719C.6,8.366,0,7.424,0,5.485c0-2.1.658-3.16,1.955-3.16a1.012,1.012,0,0,1,1.007.611V0H4.415l.11,8.365ZM2.347,3.657c-.556,0-.838.615-.838,1.828s.282,1.828.838,1.828A.616.616,0,0,0,2.962,6.7V4.377C2.805,3.913,2.587,3.657,2.347,3.657Z" transform="translate(5.867 26.709)" fill="#a7a9ac"/>
        <path id="Fill_34" data-name="Fill 34" d="M2.238,6.041C.732,6.041,0,5.1,0,3.16,0,1.034.732,0,2.238,0A1.886,1.886,0,0,1,3.871.756a3.952,3.952,0,0,1,.546,2.293C4.417,5.034,3.684,6.041,2.238,6.041Zm0-4.822c-.5,0-.73.582-.73,1.83,0,1.306.239,1.94.73,1.94s.726-.635.726-1.94C2.964,1.817,2.727,1.219,2.238,1.219Z" transform="translate(11.117 29.035)" fill="#a7a9ac"/>
        <path id="Fill_35" data-name="Fill 35" d="M0,1.106H.836V0H0Z" transform="translate(124.339 20.391)" fill="#6d6e71"/>
        <path id="Fill_36" data-name="Fill 36" d="M0,1.106H.947V0H0Z" transform="translate(112.938 20.391)" fill="#6d6e71"/>
        <path id="Fill_37" data-name="Fill 37" d="M0,1.106H1.007V0H0Z" transform="translate(69.686 20.391)" fill="#6d6e71"/>
        <path id="Fill_38" data-name="Fill 38" d="M3.8,7.65a3.871,3.871,0,0,1-1.843-.5A3.043,3.043,0,0,1,.5,5.709,3.415,3.415,0,0,1,0,3.878,3.667,3.667,0,0,1,.5,1.94,5.9,5.9,0,0,1,1.955.5,3.835,3.835,0,0,1,3.8,0,3.767,3.767,0,0,1,5.756.5,4.12,4.12,0,0,1,7.264,1.94a4.348,4.348,0,0,1,.447,1.938,4.059,4.059,0,0,1-.447,1.83A3.451,3.451,0,0,1,5.756,7.15,3.848,3.848,0,0,1,3.8,7.65ZM3.8.61a3.031,3.031,0,0,0-1.564.5A4.167,4.167,0,0,0,1,2.162,4.437,4.437,0,0,0,.613,3.878,3.137,3.137,0,0,0,1,5.488L2.234,6.7A3.735,3.735,0,0,0,3.8,7.039,4.584,4.584,0,0,0,5.532,6.7,5.534,5.534,0,0,0,6.647,5.488a2.724,2.724,0,0,0,.447-1.609,4.044,4.044,0,0,0-.447-1.716A2.306,2.306,0,0,0,5.422,1.109,2.478,2.478,0,0,0,3.8.61Z" transform="translate(134.956 20.279)" fill="#6d6e71"/>
        <path id="Fill_39" data-name="Fill 39" d="M.728,4.1H0V0L2.571.109,3.017.5l.281.61a1.157,1.157,0,0,1-.389.83,1.01,1.01,0,0,1-.841.387l.336.223L3.52,4.1H2.683L1.677,2.549l-.613-.11H.728V4.1Zm0-3.492V1.827h.838l.725-.11.28-.5L2.4.829,2.181.608Z" transform="translate(137.078 22.11)" fill="#6d6e71"/>
        <path id="Fill_40" data-name="Fill 40" d="M1.566,0,.615.609V1.941H0v.774H.615v3.16L.728,6.926l.447.39.783.108h.724l-.111-.83H1.787l-.221-.277v-3.6h1V1.941h-1Z" transform="translate(131.937 20.501)" fill="#6d6e71"/>
        <path id="Fill_41" data-name="Fill 41" d="M4.3,1.5,4.024.719,3.3.111,2.068,0,1.343.111.728.388l-.449.5-.166.722.279.719a.661.661,0,0,0,.615.5l2.29.722.28.5-.28.611c-.166.166-.445.221-.947.221a1.486,1.486,0,0,1-1.007-.221l-.5-.89L0,3.879A2.954,2.954,0,0,0,.728,5.264a2.564,2.564,0,0,0,1.621.442l1.062-.219L4.3,4.877l.221-.832L4.3,3.158c-.058-.166-.281-.277-.613-.44L1.456,2.1l-.339-.277L1.007,1.5A.664.664,0,0,1,1.343,1L2.236.719,3.075,1a4.9,4.9,0,0,1,.336.719Z" transform="translate(126.516 22.33)" fill="#6d6e71"/>
        <path id="Fill_42" data-name="Fill 42" d="M0,7.537H1.007V0H0Z" transform="translate(121.598 20.39)" fill="#6d6e71"/>
        <path id="Fill_43" data-name="Fill 43" d="M1.842,5.709h0A1.879,1.879,0,0,1,.5,5.267,1.326,1.326,0,0,1,0,4.156l.166-.72.447-.5L1.4,2.549,3.8,2.1V1.828l-.223-.719A1.458,1.458,0,0,0,2.458.721,2.253,2.253,0,0,0,1.509,1c-.169.055-.334.326-.5.829l-.838-.11L.5.721,1.4.279A1.936,1.936,0,0,1,2.571,0L3.688.111c.448.192.678.35.725.5l.278.611L4.8,4.875l.224.721H4.079L3.8,4.875a1.582,1.582,0,0,1-.953.613l-1,.221ZM3.8,2.825,2.234,3.16l-.725.276h0c-.29,0-.393.057-.393.219l-.11.5.221.61.9.222.95-.222.616-.61.112-1Z" transform="translate(115.23 22.33)" fill="#6d6e71"/>
        <path id="Fill_44" data-name="Fill 44" d="M0,5.485H.836V0H0Z" transform="translate(124.339 22.442)" fill="#6d6e71"/>
        <path id="Fill_45" data-name="Fill 45" d="M3.409,1a3.584,3.584,0,0,1,.391.83l.951-.108A2.373,2.373,0,0,0,4.021.5,1.992,1.992,0,0,0,2.573,0,2.262,2.262,0,0,0,1.23.385a1.523,1.523,0,0,0-.9.943A3.011,3.011,0,0,0,0,2.826,2.909,2.909,0,0,0,.726,4.987a2.5,2.5,0,0,0,1.847.72A2.017,2.017,0,0,0,4.021,5.1a1.992,1.992,0,0,0,.73-1.44l-.838-.108a2.977,2.977,0,0,1-.5,1.106,1.156,1.156,0,0,1-.836.221,1.27,1.27,0,0,1-1.119-.5c-.334-.221-.5-.721-.5-1.551a2.236,2.236,0,0,1,.5-1.609,1.593,1.593,0,0,1,1.119-.5Z" transform="translate(107.069 22.332)" fill="#6d6e71"/>
        <path id="Fill_46" data-name="Fill 46" d="M0,5.485H.947V0H0Z" transform="translate(112.938 22.442)" fill="#6d6e71"/>
        <path id="Fill_47" data-name="Fill 47" d="M2.568,5.707A2.5,2.5,0,0,1,.723,4.988,2.72,2.72,0,0,1,0,2.937,3.031,3.031,0,0,1,.723.719,2.5,2.5,0,0,1,2.568,0,2.5,2.5,0,0,1,4.414.719a3.759,3.759,0,0,1,.614,2.107v.222H1a2.814,2.814,0,0,0,.449,1.44,1.912,1.912,0,0,0,1.115.387c.551,0,.852-.066,1.006-.222.244-.121.4-.419.449-.887l1,.11a1.77,1.77,0,0,1-.839,1.388A3.407,3.407,0,0,1,2.568,5.707Zm0-4.988a1.57,1.57,0,0,0-1.115.5,2.962,2.962,0,0,0-.439,1.075L1,2.326H4.023a1.431,1.431,0,0,0-.226-1A1.856,1.856,0,0,0,2.568.719Z" transform="translate(100.924 22.331)" fill="#6d6e71"/>
        <path id="Fill_48" data-name="Fill 48" d="M.839,7.646H0V.111H.727V.885A1.931,1.931,0,0,1,1.453.277,1.331,1.331,0,0,1,2.347,0,2.018,2.018,0,0,1,3.69.387a2.7,2.7,0,0,1,.725.942,3.423,3.423,0,0,1,.224,1.5,2.845,2.845,0,0,1-.224,1.44,2.656,2.656,0,0,1-.839,1.108,2.128,2.128,0,0,1-1.23.332l-.894-.221-.614-.5V7.645ZM2.347.72a1.563,1.563,0,0,0-1.115.5,2.943,2.943,0,0,0-.5,1.717,1.971,1.971,0,0,0,.5,1.44,1.163,1.163,0,0,0,.949.5,1.272,1.272,0,0,0,1.117-.5,2.672,2.672,0,0,0,.5-1.551A2.729,2.729,0,0,0,3.3,1.22,1.1,1.1,0,0,0,2.347.72Z" transform="translate(95.165 22.331)" fill="#6d6e71"/>
        <path id="Fill_49" data-name="Fill 49" d="M5.419,1.106a1.8,1.8,0,0,0-1-.885L2.962,0,1.619.221A1.927,1.927,0,0,0,.613,1L.278,2.051a1.785,1.785,0,0,0,.334,1,1.008,1.008,0,0,0,.728.611,3.739,3.739,0,0,0,1.508.5l1.34.334c.392.166.67.332.73.5L5.03,5.6,4.919,6.2l-.73.5-1,.108L2.066,6.7l-.838-.611-.221-1L0,5.207A1.814,1.814,0,0,0,.389,6.538a3.72,3.72,0,0,0,1.064.885,4.394,4.394,0,0,0,1.732.334,2.432,2.432,0,0,0,1.451-.334A1.177,1.177,0,0,0,5.642,6.7a1.776,1.776,0,0,0,.392-1.221L5.753,4.377l-.947-.72-1.734-.5a2.093,2.093,0,0,1-1.453-.5.871.871,0,0,1-.392-.719c0-.221.171-.442.5-.721A1.682,1.682,0,0,1,3.072.83a1.642,1.642,0,0,1,1.23.388,2.019,2.019,0,0,1,.617,1.111l.834-.168a1.406,1.406,0,0,0-.334-1.053" transform="translate(87.567 20.281)" fill="#6d6e71"/>
        <path id="Fill_50" data-name="Fill 50" d="M2.289,7.816a2.132,2.132,0,0,1-1.565-.5A1.524,1.524,0,0,1,.11,5.986l.951.221.279.5a1.313,1.313,0,0,0,.949.334A1.564,1.564,0,0,0,3.3,6.705c.16-.05.324-.249.5-.609l.113-1.219A2.183,2.183,0,0,1,2.289,5.6,1.7,1.7,0,0,1,.615,4.767,2.678,2.678,0,0,1,0,2.828l.221-1.5A3.839,3.839,0,0,1,1.062.387,2.158,2.158,0,0,1,2.289,0,1.817,1.817,0,0,1,3.911.721V.113h.838V4.877c0,1.036-.068,1.566-.221,1.719a1.556,1.556,0,0,1-.841.829A2.063,2.063,0,0,1,2.289,7.816ZM2.457.721a1.587,1.587,0,0,0-1.117.5A2.726,2.726,0,0,0,.948,2.828a1.927,1.927,0,0,0,.392,1.44,1.269,1.269,0,0,0,1.117.5,1.388,1.388,0,0,0,1.062-.5,1.927,1.927,0,0,0,.392-1.44,2.227,2.227,0,0,0-.5-1.609A1.45,1.45,0,0,0,2.457.721Z" transform="translate(72.032 22.329)" fill="#6d6e71"/>
        <path id="Fill_51" data-name="Fill 51" d="M0,.111V5.6H.838V2.551a1.8,1.8,0,0,1,.5-1.332A1.561,1.561,0,0,1,2.347.888L3.075,1l.336.5.108.722V5.6h.9V1.333L4.024.611a4.493,4.493,0,0,0-.613-.5L2.573,0A1.772,1.772,0,0,0,.838.888V.111Z" transform="translate(78.514 22.33)" fill="#6d6e71"/>
        <path id="Fill_52" data-name="Fill 52" d="M3.3.111,2.181,0,1.343.111.838.39l-.5.5-.224.719.224.721.612.5L3.3,3.548c.281.166.389.331.389.5a.6.6,0,0,1-.389.611c-.168.166-.447.221-.949.221a1.484,1.484,0,0,1-1.006-.221,1.171,1.171,0,0,1-.394-.887L0,3.879A2.546,2.546,0,0,0,.726,5.267a2.581,2.581,0,0,0,1.624.44l1.172-.219A1.088,1.088,0,0,0,4.3,4.877a1.57,1.57,0,0,0,.221-.832l-.113-.888L3.8,2.716,1.567,2.107,1.23,1.83,1.117,1.5c0-.277.058-.442.226-.5L2.181.72,3.075,1a.828.828,0,0,1,.334.723l1-.223L4.024.72A1.323,1.323,0,0,0,3.3.111" transform="translate(63.816 22.33)" fill="#6d6e71"/>
        <path id="Fill_53" data-name="Fill 53" d="M2.573,5.706A2.718,2.718,0,0,1,.56,4.987,2.9,2.9,0,0,1,0,2.936,3.2,3.2,0,0,1,.56.719,2.5,2.5,0,0,1,2.4,0,2.488,2.488,0,0,1,4.249.719a2.854,2.854,0,0,1,.725,2.107v.221H.841a2.786,2.786,0,0,0,.615,1.441,1.351,1.351,0,0,0,1.117.387,1.139,1.139,0,0,0,.836-.222,1.133,1.133,0,0,0,.614-.887l.952.11a3.639,3.639,0,0,1-.838,1.386A4.233,4.233,0,0,1,2.573,5.706Zm0-4.987a1.262,1.262,0,0,0-1.117.5,1.323,1.323,0,0,0-.5,1.108H4.023a5.951,5.951,0,0,0-.386-.989l0-.006A1.142,1.142,0,0,0,2.573.719Z" transform="translate(57.835 22.332)" fill="#6d6e71"/>
        <path id="Fill_54" data-name="Fill 54" d="M0,5.485H1.007V0H0Z" transform="translate(69.686 22.442)" fill="#6d6e71"/>
        <path id="Fill_55" data-name="Fill 55" d="M0,7.534H0V0L3.911.109c.329.149.593.265.786.35.169.074.281.124.333.149a2.6,2.6,0,0,1,.838,1.33,3.426,3.426,0,0,1,.389,1.717L5.981,5.206a2.664,2.664,0,0,1-.5,1.111l-.728.72-.838.387L0,7.534ZM.949.885V6.594L3.8,6.426c.169,0,.333-.106.617-.329a3.189,3.189,0,0,0,.616-1l.11-1.442a3.617,3.617,0,0,0-.391-1.827L3.8,1Z" transform="translate(50.35 20.392)" fill="#6d6e71"/>
      </g>
    </g>
  </g>
</svg>
