<svg xmlns="http://www.w3.org/2000/svg" width="180.918" height="181.639" viewBox="0 0 180.918 181.639">
  <g id="Advertising_Icon" data-name="Advertising Icon" transform="translate(1 1)">
    <path id="Stroke_1" data-name="Stroke 1" d="M0,.5H23.086" transform="translate(77.916 165.672)" fill="none" stroke="#818181" stroke-linecap="round" stroke-linejoin="round" stroke-miterlimit="10" stroke-width="2"/>
    <path id="Stroke_2" data-name="Stroke 2" d="M0,.5H12.505" transform="translate(83.206 179.139)" fill="none" stroke="#818181" stroke-linecap="round" stroke-linejoin="round" stroke-miterlimit="10" stroke-width="2"/>
    <path id="Stroke_3" data-name="Stroke 3" d="M.5,0V16.353" transform="translate(88.718)" fill="none" stroke="#818181" stroke-linecap="round" stroke-linejoin="round" stroke-miterlimit="10" stroke-width="2"/>
    <path id="Stroke_5" data-name="Stroke 5" d="M0,0,11.543,11.543" transform="translate(25.972 25.972)" fill="none" stroke="#818181" stroke-linecap="round" stroke-linejoin="round" stroke-miterlimit="10" stroke-width="2"/>
    <path id="Stroke_6" data-name="Stroke 6" d="M0,.5H16.353" transform="translate(0 88.718)" fill="none" stroke="#818181" stroke-linecap="round" stroke-linejoin="round" stroke-miterlimit="10" stroke-width="2"/>
    <path id="Stroke_7" data-name="Stroke 7" d="M0,.5H16.353" transform="translate(162.565 88.718)" fill="none" stroke="#818181" stroke-linecap="round" stroke-linejoin="round" stroke-miterlimit="10" stroke-width="2"/>
    <path id="Stroke_8" data-name="Stroke 8" d="M0,11.543,11.543,0" transform="translate(141.403 25.972)" fill="none" stroke="#818181" stroke-linecap="round" stroke-linejoin="round" stroke-miterlimit="10" stroke-width="2"/>
    <path id="Stroke_9" data-name="Stroke 9" d="M42.526.017A43.839,43.839,0,0,0,13.2,75.193,31.025,31.025,0,0,1,22.465,97.4v-.779a7.262,7.262,0,0,0,7.257,7.266H57.814a7.262,7.262,0,0,0,7.257-7.266V97.3a30.643,30.643,0,0,1,9.163-22.01A43.837,43.837,0,0,0,42.526.017Z" transform="translate(45.691 49.058)" fill="none" stroke="#818181" stroke-linecap="round" stroke-linejoin="round" stroke-miterlimit="10" stroke-width="2"/>
  </g>
</svg>
