<svg xmlns="http://www.w3.org/2000/svg" width="181.548" height="153.001" viewBox="0 0 181.548 153.001">
  <g id="Branding_Icon" data-name="Branding Icon" transform="translate(1 1)">
    <path id="Stroke_25" data-name="Stroke 25" d="M0,17.375H17.376V0H0Z" transform="translate(81.086 0)" fill="none" stroke="#818181" stroke-linecap="round" stroke-linejoin="round" stroke-miterlimit="10" stroke-width="2"/>
    <path id="Stroke_27" data-name="Stroke 27" d="M0,17.376H17.376V0H0Z" transform="translate(0 92.67)" fill="none" stroke="#818181" stroke-linecap="round" stroke-linejoin="round" stroke-miterlimit="10" stroke-width="2"/>
    <path id="Stroke_28" data-name="Stroke 28" d="M17.376,8.687A8.688,8.688,0,1,1,8.688,0,8.687,8.687,0,0,1,17.376,8.687Z" transform="translate(0 0)" fill="none" stroke="#818181" stroke-linecap="round" stroke-linejoin="round" stroke-miterlimit="10" stroke-width="2"/>
    <path id="Stroke_29" data-name="Stroke 29" d="M17.376,8.687A8.688,8.688,0,1,1,8.688,0,8.687,8.687,0,0,1,17.376,8.687Z" transform="translate(162.172 0)" fill="none" stroke="#818181" stroke-linecap="round" stroke-linejoin="round" stroke-miterlimit="10" stroke-width="2"/>
    <path id="Stroke_30" data-name="Stroke 30" d="M0,.5H63.711" transform="translate(17.376 8.188)" fill="none" stroke="#818181" stroke-linecap="round" stroke-linejoin="round" stroke-miterlimit="10" stroke-width="2"/>
    <path id="Stroke_31" data-name="Stroke 31" d="M0,.5H63.711" transform="translate(98.462 8.188)" fill="none" stroke="#818181" stroke-linecap="round" stroke-linejoin="round" stroke-miterlimit="10" stroke-width="2"/>
    <path id="Stroke_32" data-name="Stroke 32" d="M0,0C40.7,4.335,72.4,39.239,72.4,81.086A80.891,80.891,0,0,1,44.946,141.9" transform="translate(98.462 8.688)" fill="none" stroke="#818181" stroke-linecap="round" stroke-linejoin="round" stroke-miterlimit="10" stroke-width="2"/>
    <path id="Stroke_33" data-name="Stroke 33" d="M.051,83.981Q0,82.54,0,81.086C0,39.239,31.7,4.335,72.4,0" transform="translate(8.688 8.688)" fill="none" stroke="#818181" stroke-linecap="round" stroke-linejoin="round" stroke-miterlimit="10" stroke-width="2"/>
    <path id="Stroke_34" data-name="Stroke 34" d="M17.376,8.688A8.688,8.688,0,1,1,8.688,0,8.688,8.688,0,0,1,17.376,8.688Z" transform="translate(81.086 92.67)" fill="none" stroke="#818181" stroke-linecap="round" stroke-linejoin="round" stroke-miterlimit="10" stroke-width="2"/>
    <path id="Stroke_35" data-name="Stroke 35" d="M86.355,71.616,46.264,1.459a2.9,2.9,0,0,0-5.028,0L1.146,71.616A8.674,8.674,0,0,0,2.935,82.428c4.8,4.26,11.548,11.626,15.149,21.781" transform="translate(46.024 31.9)" fill="none" stroke="#818181" stroke-linecap="round" stroke-linejoin="round" stroke-miterlimit="10" stroke-width="2"/>
    <path id="Stroke_36" data-name="Stroke 36" d="M.5,0V60.815" transform="translate(89.274 31.855)" fill="none" stroke="#818181" stroke-linecap="round" stroke-linejoin="round" stroke-miterlimit="10" stroke-width="2"/>
  </g>
</svg>
