<svg id="Full_Logo" data-name="Full Logo" xmlns="http://www.w3.org/2000/svg" xmlns:xlink="http://www.w3.org/1999/xlink" width="182.265" height="52" viewBox="0 0 182.265 52">
  <defs>
    <clipPath id="clip-path">
      <path id="Clip_2" data-name="Clip 2" d="M0,0H51.831V48.4H0Z" fill="none"/>
    </clipPath>
  </defs>
  <g id="Logo" transform="translate(0)">
    <rect id="Rectangle" width="51.831" height="51.831" rx="10" transform="translate(0.096 0.169)" fill="#a41427"/>
    <g id="Group_3" data-name="Group 3">
      <path id="Clip_2-2" data-name="Clip 2" d="M0,0H51.831V48.4H0Z" fill="none"/>
      <g id="Group_3-2" data-name="Group 3" clip-path="url(#clip-path)">
        <path id="Fill_1" data-name="Fill 1" d="M1.576,48.4h0a7.812,7.812,0,0,1-.722-1.155c.274-.469.516-.876.741-1.247.888-1.469,1.7-2.905,2.57-4.425.521-.916,1.06-1.862,1.612-2.811l4.174-7.23H9.917c-.777,0-4.177.589-6.909,1.062C1.738,32.813.641,33,0,33.1v-.8c2.328-.354,4.644-.7,6.883-1.034H6.9l2.039-.3.029,0c1.613-.241,1.613-.241,2.53-1.9.364-.659.863-1.561,1.662-2.842.732-1.174,1.474-2.4,2.191-3.593.753-1.248,1.531-2.537,2.306-3.777L29.6,0h2.2a58.309,58.309,0,0,0-3.678,4.693C23.128,12.31,19.234,18.3,14.588,26.033c-.147.244-.294.484-.437.715-.307.5-.6.968-.88,1.486-.107.194-.25.424-.4.667a8.239,8.239,0,0,0-.852,1.6l14.962-1.94c1.246-3.512,4.99-19.511,5.849-23.283.041-.179.1-.432.171-.74l0-.015c.257-1.106.686-2.955,1.023-4.524h2.021c-2.186,7.01-4.814,17.842-5.871,22.967-.178.868-.291,1.809-.4,2.719-.1.819-.2,1.665-.349,2.454a1.291,1.291,0,0,0,.15.007,49.479,49.479,0,0,0,5.585-.742,23.915,23.915,0,0,0,5.657-1.436c.9-.665,1.766-1.241,2.635-1.763.335-.2.653-.4.96-.6a6.144,6.144,0,0,1,2.963-1.3,2.221,2.221,0,0,1,1.242.393,3.052,3.052,0,0,1,1.471,2.2c.354,1.72.056,2.2-.659,2.833a3.919,3.919,0,0,0,1.246,2.547,2.034,2.034,0,0,0,1.153.436v2.224c-.957.071-1.727.107-2.288.107a3.806,3.806,0,0,1-.947-.076c-1.615-.513-2.229-2.752-2.56-3.955-.07-.255-.13-.475-.184-.619a5.1,5.1,0,0,0-1.713.907,7.758,7.758,0,0,1-.708.453,54.142,54.142,0,0,0-6.9,4.287,6.582,6.582,0,0,0-.973.912,5.277,5.277,0,0,1-1,.914,1.581,1.581,0,0,1-.829.237,1.778,1.778,0,0,1-1.522-.925,1.53,1.53,0,0,1,.046-1.594,25.653,25.653,0,0,1,4.738-4.591c-.142.1-.274.208-.4.318L29.4,29.7c-.428.8-.735,5.338-.677,6.5a8.106,8.106,0,0,0,.145,1.037,3.366,3.366,0,0,1-.075,2.175,2.458,2.458,0,0,1-2.08,1.185,1.626,1.626,0,0,1-1.323-.62,2.913,2.913,0,0,1-.533-1.6,9.649,9.649,0,0,1,.309-2.872l1.374-5.714c-.261-.008-.541-.012-.833-.012a78.695,78.695,0,0,0-9.612.812c-.854.111-1.548.181-2.107.238-2.565.26-2.565.26-3.861,2.666-.242.45-.544,1.01-.915,1.667-.892,1.58-2.013,3.5-3.2,5.533-1.5,2.568-3.048,5.223-4.438,7.7ZM45.862,25.026c-1.7,0-3.176,1.051-4.6,2.066A15.006,15.006,0,0,0,39.7,28.436c-.259.245-.526.5-.8.74a16.7,16.7,0,0,0-3.25,3.615,13.535,13.535,0,0,0,2.832-1.622l2.374-2.2a9.246,9.246,0,0,0,1.067-1.091,21.6,21.6,0,0,1,3.3-2.425l.8-.422C45.975,25.028,45.922,25.026,45.862,25.026Z" transform="translate(0 0)" fill="#e6e7e8"/>
      </g>
    </g>
  </g>
  <path id="AMERALAKKAD" d="M113.445,11.375V0h3.36a5.266,5.266,0,0,1,2.676.672,4.578,4.578,0,0,1,1.809,1.906,6.053,6.053,0,0,1,.64,2.828v.571a6.016,6.016,0,0,1-.644,2.843,4.52,4.52,0,0,1-1.836,1.891,5.509,5.509,0,0,1-2.731.664Zm-3.352,0-.93-2.649h-4.406l-.923,2.649h-2.055L106.078,0h1.773l4.3,11.375Zm-10.695,0L95.977,6.461l-1.29,1.367v3.547H92.711V0h1.976V5.336l1.094-1.352L99.11,0h2.39L97.274,5.039l4.468,6.336Zm-10.086,0L85.891,6.461,84.6,7.828v3.547H82.625V0H84.6V5.336L85.7,3.984,89.023,0h2.39L87.188,5.039l4.469,6.336Zm-10.039,0-.93-2.649H73.938l-.922,2.649H70.961L75.258,0h1.773l4.3,11.375Zm-19.938,0V0h1.976V9.8h5.164v1.579Zm-3.352,0-.93-2.649H50.648l-.922,2.649H47.672L51.969,0h1.774l4.3,11.375Zm-14.805,0L38.9,6.992H36.7v4.383H34.718V0h4a4.657,4.657,0,0,1,3.039.883,3.123,3.123,0,0,1,1.07,2.554,3.2,3.2,0,0,1-.551,1.911,3.508,3.508,0,0,1-1.535,1.183L43.3,11.273v.1Zm-15.508,0V0h7.383V1.594H27.648v3.14H32.32V6.3H27.648V9.8h5.461v1.579Zm-4.3,0V7.625l.2-5.016L18.2,11.375H16.79L13.438,2.617l.2,5.008v3.75H11.664V0h2.562l3.281,8.718L20.781,0h2.555V11.375Zm-13.055,0-.93-2.649H2.976l-.922,2.649H0L4.3,0H6.071l4.3,11.375Z" transform="translate(56.258 14.625)" fill="#9f9f9f"/>
  <path id="Creativedirector" d="M90.607,9.59a4,4,0,0,1-.932-2.768V6.734A4.374,4.374,0,0,1,90.1,4.778a3.185,3.185,0,0,1,1.19-1.339,3.235,3.235,0,0,1,1.74-.472,3.118,3.118,0,0,1,2.443,1.047A4.019,4.019,0,0,1,96.407,6.8v.089a4.411,4.411,0,0,1-.413,1.938,3.154,3.154,0,0,1-1.183,1.337,3.282,3.282,0,0,1-1.768.479A3.113,3.113,0,0,1,90.607,9.59Zm-4.289.534a2.2,2.2,0,0,1-.43-1.456V4.082H84.54V3.1h1.347V1.312h1.265V3.1h1.381v.978H87.152V8.668a1.025,1.025,0,0,0,.184.667.78.78,0,0,0,.629.221,3.036,3.036,0,0,0,.6-.082V10.5a3.677,3.677,0,0,1-.97.137A1.576,1.576,0,0,1,86.317,10.124Zm-7.646-.5a4.015,4.015,0,0,1-.893-2.759V6.658a4.448,4.448,0,0,1,.4-1.921,3.017,3.017,0,0,1,1.138-1.306,3.233,3.233,0,0,1,1.753-.465,2.969,2.969,0,0,1,2.068.745,2.666,2.666,0,0,1,.878,1.935h-1.2a1.735,1.735,0,0,0-.544-1.179,1.688,1.688,0,0,0-1.206-.462,1.771,1.771,0,0,0-1.494.694,3.261,3.261,0,0,0-.529,2.006v.239a3.2,3.2,0,0,0,.526,1.969,1.78,1.78,0,0,0,1.5.69,1.818,1.818,0,0,0,1.183-.41,1.442,1.442,0,0,0,.561-1.025h1.2a2.3,2.3,0,0,1-.438,1.21A2.876,2.876,0,0,1,82.5,10.3a3.111,3.111,0,0,1-1.426.342A3.045,3.045,0,0,1,78.672,9.628Zm-7.359.021a3.666,3.666,0,0,1-.943-2.642V6.774a4.447,4.447,0,0,1,.42-1.966,3.28,3.28,0,0,1,1.175-1.353,2.952,2.952,0,0,1,1.638-.49,2.77,2.77,0,0,1,2.242.95,4.117,4.117,0,0,1,.8,2.721v.526H71.634a2.631,2.631,0,0,0,.639,1.768,2.011,2.011,0,0,0,1.555.673,2.208,2.208,0,0,0,1.135-.274,2.861,2.861,0,0,0,.814-.725l.772.6a3.106,3.106,0,0,1-2.789,1.429A3.231,3.231,0,0,1,71.312,9.649Zm-16.15-.065a4.384,4.384,0,0,1-.81-2.749v-.1A4.33,4.33,0,0,1,55.159,4a2.744,2.744,0,0,1,4.17-.147V0h1.264V10.5H59.432l-.061-.793a2.578,2.578,0,0,1-2.112.93A2.526,2.526,0,0,1,55.163,9.584ZM44.4,9.649a3.666,3.666,0,0,1-.943-2.642V6.774a4.434,4.434,0,0,1,.42-1.966,3.28,3.28,0,0,1,1.175-1.353,2.951,2.951,0,0,1,1.637-.49,2.768,2.768,0,0,1,2.242.95,4.112,4.112,0,0,1,.8,2.721v.526h-5.01a2.631,2.631,0,0,0,.639,1.768,2.011,2.011,0,0,0,1.555.673,2.21,2.21,0,0,0,1.135-.274,2.873,2.873,0,0,0,.814-.725l.772.6a3.108,3.108,0,0,1-2.789,1.429A3.23,3.23,0,0,1,44.4,9.649Zm-14.493.475a2.2,2.2,0,0,1-.43-1.456V4.082H28.13V3.1h1.347V1.312h1.264V3.1h1.381v.978H30.741V8.668a1.025,1.025,0,0,0,.184.667.78.78,0,0,0,.629.221,3.036,3.036,0,0,0,.6-.082V10.5a3.672,3.672,0,0,1-.97.137A1.576,1.576,0,0,1,29.907,10.124ZM21.9,10.018a2,2,0,0,1-.7-1.569,2.091,2.091,0,0,1,.878-1.795,4.142,4.142,0,0,1,2.471-.639h1.231V5.434a1.418,1.418,0,0,0-.4-1.056,1.6,1.6,0,0,0-1.169-.393,1.848,1.848,0,0,0-1.135.342,1.007,1.007,0,0,0-.458.827H21.349a1.748,1.748,0,0,1,.392-1.07,2.688,2.688,0,0,1,1.066-.816,3.587,3.587,0,0,1,1.481-.3,2.921,2.921,0,0,1,2,.64,2.306,2.306,0,0,1,.752,1.759v3.4a4.169,4.169,0,0,0,.259,1.62v.11H25.977a2.667,2.667,0,0,1-.178-.779,2.823,2.823,0,0,1-2.105.916A2.613,2.613,0,0,1,21.9,10.018Zm-7.284-.369a3.666,3.666,0,0,1-.943-2.642V6.774a4.447,4.447,0,0,1,.42-1.966,3.282,3.282,0,0,1,1.176-1.353,2.947,2.947,0,0,1,1.637-.49,2.769,2.769,0,0,1,2.242.95,4.117,4.117,0,0,1,.8,2.721v.526H14.936a2.631,2.631,0,0,0,.639,1.768,2.013,2.013,0,0,0,1.555.673,2.206,2.206,0,0,0,1.135-.274,2.861,2.861,0,0,0,.814-.725l.772.6a3.106,3.106,0,0,1-2.789,1.429A3.231,3.231,0,0,1,14.615,9.649ZM1.063,9.372A5.088,5.088,0,0,1,0,5.989V5.031a5.668,5.668,0,0,1,.5-2.44A3.7,3.7,0,0,1,1.9.974,3.915,3.915,0,0,1,4.006.41,3.6,3.6,0,0,1,6.548,1.3,3.71,3.71,0,0,1,7.664,3.746H6.344A2.854,2.854,0,0,0,5.6,2.023a2.249,2.249,0,0,0-1.6-.533,2.347,2.347,0,0,0-1.972.93,4.264,4.264,0,0,0-.715,2.645v.964A4.388,4.388,0,0,0,2,8.607a2.187,2.187,0,0,0,1.894.957,2.523,2.523,0,0,0,1.679-.5,2.754,2.754,0,0,0,.776-1.725H7.664A3.664,3.664,0,0,1,6.5,9.779a3.819,3.819,0,0,1-2.608.859A3.507,3.507,0,0,1,1.063,9.372ZM97.993,10.5V3.1h1.23l.021.855a1.971,1.971,0,0,1,1.764-.992,1.292,1.292,0,0,1,.561.1V4.238a3.837,3.837,0,0,0-.622-.048A1.668,1.668,0,0,0,99.257,5.25V10.5Zm-32.04,0V3.1h1.23l.021.855a1.971,1.971,0,0,1,1.764-.992,1.292,1.292,0,0,1,.561.1V4.238a3.84,3.84,0,0,0-.623-.048A1.667,1.667,0,0,0,67.217,5.25V10.5Zm-3.288,0V3.1H63.93v7.4Zm-23.721,0L36.265,3.1h1.292l1.879,5.681L41.269,3.1H42.56l-2.652,7.4Zm-5.236,0V3.1h1.265v7.4Zm-24.452,0V3.1h1.23l.021.855a1.971,1.971,0,0,1,1.764-.992,1.292,1.292,0,0,1,.561.1V4.238a3.836,3.836,0,0,0-.622-.048A1.668,1.668,0,0,0,10.52,5.25V10.5Zm53.5-8.846a.732.732,0,0,1-.188-.513.757.757,0,0,1,.188-.519A.7.7,0,0,1,63.308.41a.718.718,0,0,1,.561.212.751.751,0,0,1,.191.519.726.726,0,0,1-.191.513.731.731,0,0,1-.561.205A.717.717,0,0,1,62.751,1.654Zm-28.958,0a.732.732,0,0,1-.188-.513.757.757,0,0,1,.188-.519A.707.707,0,0,1,34.35.41a.716.716,0,0,1,.561.212.747.747,0,0,1,.192.519.722.722,0,0,1-.192.513.729.729,0,0,1-.561.205A.72.72,0,0,1,33.793,1.654Z" transform="translate(56.227 28.5)" fill="#9f9f9f"/>
</svg>
