<svg xmlns="http://www.w3.org/2000/svg" width="166.008" height="130.898" viewBox="0 0 166.008 130.898">
  <g id="Infographic_Icon" data-name="Infographic Icon" transform="translate(1 1)">
    <path id="Stroke_76" data-name="Stroke 76" d="M24.048,12.024A12.024,12.024,0,1,1,12.024,0,12.024,12.024,0,0,1,24.048,12.024Z" transform="translate(139.96)" fill="none" stroke="#818181" stroke-linecap="round" stroke-linejoin="round" stroke-miterlimit="10" stroke-width="2"/>
    <path id="Stroke_77" data-name="Stroke 77" d="M24.048,12.024A12.024,12.024,0,1,1,12.024,0,12.024,12.024,0,0,1,24.048,12.024Z" transform="translate(92.345 75.511)" fill="none" stroke="#818181" stroke-linecap="round" stroke-linejoin="round" stroke-miterlimit="10" stroke-width="2"/>
    <path id="Stroke_78" data-name="Stroke 78" d="M24.048,12.024A12.024,12.024,0,1,1,12.024,0,12.024,12.024,0,0,1,24.048,12.024Z" transform="translate(37.996 39.439)" fill="none" stroke="#818181" stroke-linecap="round" stroke-linejoin="round" stroke-miterlimit="10" stroke-width="2"/>
    <path id="Stroke_79" data-name="Stroke 79" d="M24.048,12.024A12.024,12.024,0,1,1,12.024,0,12.024,12.024,0,0,1,24.048,12.024Z" transform="translate(0 104.85)" fill="none" stroke="#818181" stroke-linecap="round" stroke-linejoin="round" stroke-miterlimit="10" stroke-width="2"/>
    <path id="Stroke_80" data-name="Stroke 80" d="M32.705,0,0,53.868" transform="translate(113.507 22.605)" fill="none" stroke="#818181" stroke-linecap="round" stroke-linejoin="round" stroke-miterlimit="10" stroke-width="2"/>
    <path id="Stroke_81" data-name="Stroke 81" d="M24.529,0,0,43.768" transform="translate(19.238 62.044)" fill="none" stroke="#818181" stroke-linecap="round" stroke-linejoin="round" stroke-miterlimit="10" stroke-width="2"/>
    <path id="Stroke_82" data-name="Stroke 82" d="M0,0,33.186,21.643" transform="translate(59.158 59.158)" fill="none" stroke="#818181" stroke-linecap="round" stroke-linejoin="round" stroke-miterlimit="10" stroke-width="2"/>
  </g>
</svg>
