<svg xmlns="http://www.w3.org/2000/svg" width="37" height="37" viewBox="0 0 37 37">
  <g id="message-circle" transform="translate(1 1)">
    <path id="Path" d="M35,16.528a16.294,16.294,0,0,1-1.75,7.389,16.528,16.528,0,0,1-14.778,9.139,16.294,16.294,0,0,1-7.389-1.75L0,35,3.694,23.917a16.294,16.294,0,0,1-1.75-7.389A16.528,16.528,0,0,1,11.083,1.75,16.294,16.294,0,0,1,18.472,0h.972A16.489,16.489,0,0,1,35,15.556v.972Z" fill="rgba(0,0,0,0)" stroke="#818181" stroke-linecap="round" stroke-linejoin="round" stroke-miterlimit="10" stroke-width="2"/>
    <path id="Fill_12" data-name="Fill 12" d="M8.914.051c-.133.086-.212.315-.371.66S7.614,2.749,7.508,3.065s-.16.545.159.776S8.7,4.732,8.914,4.932s.238.4.079.747a9.588,9.588,0,0,1-1.579,2.77,9.75,9.75,0,0,1-2.2,1.916c-.318.2-.49.021-.649-.151-.143-.155-.372-.344-.557-.517a2.059,2.059,0,0,0-.53-.348.546.546,0,0,0-.558.029c-.158.087-1.724.776-2.361,1.061-.62.28-.536.565-.546.776L0,11.876a1.312,1.312,0,0,0,.4.918A3.462,3.462,0,0,0,3.051,14a5.956,5.956,0,0,0,3.29-1.406,14.948,14.948,0,0,0,4.8-5.883c.328-.822.523-1.465.67-1.964a5.118,5.118,0,0,0,.127-2.17A3.559,3.559,0,0,0,10.427.251a2.459,2.459,0,0,0-1.513-.2" transform="translate(12 10)" fill="#818181"/>
  </g>
</svg>
