<svg xmlns="http://www.w3.org/2000/svg" width="185.56" height="177.87" viewBox="0 0 185.56 177.87">
  <g id="Printing_Icon" data-name="Printing Icon" transform="translate(1 1)">
    <path id="Stroke_11" data-name="Stroke 11" d="M121.322,60.661A60.661,60.661,0,1,1,60.661,0,60.661,60.661,0,0,1,121.322,60.661Z" transform="translate(62.237 0)" fill="none" stroke="#818181" stroke-linecap="round" stroke-linejoin="round" stroke-miterlimit="10" stroke-width="2"/>
    <path id="Stroke_13" data-name="Stroke 13" d="M121.322,60.661A60.661,60.661,0,1,1,60.661,0,60.661,60.661,0,0,1,121.322,60.661Z" transform="translate(0 0)" fill="none" stroke="#818181" stroke-linecap="round" stroke-linejoin="round" stroke-miterlimit="10" stroke-width="2"/>
    <path id="Stroke_15" data-name="Stroke 15" d="M121.322,60.661A60.661,60.661,0,1,1,60.661,0,60.662,60.662,0,0,1,121.322,60.661Z" transform="translate(31.119 54.548)" fill="none" stroke="#818181" stroke-linecap="round" stroke-linejoin="round" stroke-miterlimit="10" stroke-width="2"/>
    <path id="Fill_17" data-name="Fill 17" d="M10.269,9.288a4.909,4.909,0,0,1-1.562,3.266A5.119,5.119,0,0,1,5.213,13.7a4.7,4.7,0,0,1-3.788-1.695A6.82,6.82,0,0,1,0,7.475V6.192a7.587,7.587,0,0,1,.665-3.27A4.958,4.958,0,0,1,2.547.756,5.244,5.244,0,0,1,5.368,0,4.821,4.821,0,0,1,8.776,1.186,4.969,4.969,0,0,1,10.269,4.47H8.5a3.832,3.832,0,0,0-.994-2.315,3.007,3.007,0,0,0-2.139-.717A3.147,3.147,0,0,0,2.725,2.685a5.726,5.726,0,0,0-.957,3.548V7.526a5.883,5.883,0,0,0,.907,3.456,2.929,2.929,0,0,0,2.538,1.284A3.387,3.387,0,0,0,7.462,11.6,3.688,3.688,0,0,0,8.5,9.288Z" transform="translate(28.624 35.143)" fill="none" stroke="#818181" stroke-linecap="round" stroke-linejoin="round" stroke-miterlimit="10" stroke-width="2"/>
    <path id="Fill_19" data-name="Fill 19" d="M2.272,0l4.36,10.883L10.992,0h2.281V13.337H11.514V8.144l.165-5.607L7.3,13.337H5.954L1.585,2.565l.174,5.579v5.193H0V0Z" transform="translate(143.009 35.326)" fill="none" stroke="#818181" stroke-linecap="round" stroke-linejoin="round" stroke-miterlimit="10" stroke-width="2"/>
    <path id="Fill_21" data-name="Fill 21" d="M3.389,7.136,1.759,8.83v4.507H0V0H1.759V6.6L7.685,0H9.811L4.562,5.89l5.661,7.447H8.116Z" transform="translate(86.668 73.282)" fill="none" stroke="#818181" stroke-linecap="round" stroke-linejoin="round" stroke-miterlimit="10" stroke-width="2"/>
    <path id="Fill_23" data-name="Fill 23" d="M5.478,6.7,8.959,0h2l-4.6,8.363v4.974H4.6V8.363L0,0H2.015Z" transform="translate(86.302 138.108)" fill="none" stroke="#818181" stroke-linecap="round" stroke-linejoin="round" stroke-miterlimit="10" stroke-width="2"/>
  </g>
</svg>
