<svg id="Social_Share" data-name="Social Share" xmlns="http://www.w3.org/2000/svg" width="37" height="236" viewBox="0 0 37 236">
  <g id="Social_Share-2" data-name="Social Share">
    <path id="Fill_1" data-name="Fill 1" d="M0,73H37V0H0Z" transform="translate(0 163)" fill="#820f1e"/>
    <text id="SHARE" transform="translate(8.5 230.5) rotate(-90)" fill="#c8c8c8" font-size="14" font-family="Roboto-Regular, Roboto" letter-spacing="0.206em"><tspan x="3.165" y="15">SHARE</tspan></text>
    <path id="Fill_1_Copy" data-name="Fill 1 Copy" d="M0,163H37V0H0Z" fill="#a41427"/>
    <g id="Group_19" data-name="Group 19" transform="translate(9 15.438)">
      <g id="Group_6" data-name="Group 6" transform="translate(17.5 73.027) rotate(90)">
        <path id="Stroke_2" data-name="Stroke 2" d="M0,5A5.039,5.039,0,0,1,5.077,0H11V3.334H5.077a1.667,1.667,0,1,0,0,3.333H11V10H5.077A5.039,5.039,0,0,1,0,5Z" transform="translate(5.5)" fill="none" stroke="#fff" stroke-linecap="round" stroke-linejoin="round" stroke-miterlimit="10" stroke-width="1"/>
        <path id="Stroke_4" data-name="Stroke 4" d="M0,3H10V0H0Z" transform="translate(6.5 13)" fill="none" stroke="#fff" stroke-linecap="round" stroke-linejoin="round" stroke-miterlimit="10" stroke-width="1"/>
        <path id="Stroke_6" data-name="Stroke 6" d="M0,1.5A1.5,1.5,0,1,1,1.5,3,1.5,1.5,0,0,1,0,1.5Z" transform="translate(0 13.5)" fill="none" stroke="#fff" stroke-linecap="round" stroke-linejoin="round" stroke-miterlimit="10" stroke-width="1"/>
      </g>
      <g id="Group_7" data-name="Group 7" transform="translate(17.549 37.71) rotate(90)">
        <path id="Stroke_7" data-name="Stroke 7" d="M0,12.4V4.134A4.1,4.1,0,0,1,4.071,0h8.14a4.1,4.1,0,0,1,4.071,4.134V12.4a4.1,4.1,0,0,1-4.071,4.134H4.071A4.1,4.1,0,0,1,0,12.4Z" transform="translate(0 0)" fill="none" stroke="#fff" stroke-linecap="round" stroke-linejoin="round" stroke-miterlimit="10" stroke-width="1"/>
        <path id="Stroke_8" data-name="Stroke 8" d="M2.778.036a3.263,3.263,0,0,1,3.7,2.786A3.3,3.3,0,0,1,3.733,6.58a3.264,3.264,0,0,1-3.7-2.787,3.384,3.384,0,0,1,0-.971A3.282,3.282,0,0,1,2.778.036Z" transform="translate(4.849 4.925)" fill="none" stroke="#fff" stroke-linecap="round" stroke-linejoin="round" stroke-miterlimit="10" stroke-width="1"/>
        <path id="Stroke_9" data-name="Stroke 9" d="M.278.286V.278" transform="translate(3.386 3.435)" fill="none" stroke="#fff" stroke-linecap="round" stroke-linejoin="round" stroke-miterlimit="10" stroke-width="1"/>
      </g>
      <g id="Stroke_12" data-name="Stroke 12" transform="translate(4.26 0)">
        <path id="Stroke_10" data-name="Stroke 10" d="M0,0V2.845A4.706,4.706,0,0,0,4.669,7.588h2.8v2.845h3.735V7.588h7.47V3.795h-7.47V.949L7.47,0V3.795h-2.8a.941.941,0,0,1-.934-.949V0Z" transform="translate(10.434 0) rotate(90)" fill="none" stroke="#fff" stroke-linecap="round" stroke-linejoin="round" stroke-miterlimit="10" stroke-width="1"/>
      </g>
      <g id="Group_5" data-name="Group 5" transform="translate(0 108.562)">
        <path id="Stroke_11" data-name="Stroke 11" d="M18,18l-4.622-1.271a8.859,8.859,0,0,1-4.459,1.2,8.971,8.971,0,0,1-6.3-15.3A8.848,8.848,0,0,1,8.926,0a8.971,8.971,0,0,1,7.833,13.249Z" fill="none" stroke="#fff" stroke-linecap="round" stroke-linejoin="round" stroke-miterlimit="10" stroke-width="1"/>
        <path id="Fill_12" data-name="Fill 12" d="M6.685.036c-.1.061-.159.225-.278.472s-.7,1.456-.776,1.682-.12.39.119.554.776.636.935.779.179.288.059.533A6.758,6.758,0,0,1,5.561,6.035,7.233,7.233,0,0,1,3.908,7.4c-.238.143-.367.015-.486-.108S3.143,7.05,3,6.927a1.553,1.553,0,0,0-.4-.249.427.427,0,0,0-.419.021C2.07,6.761.9,7.253.418,7.457s-.4.4-.409.554L0,8.483a.915.915,0,0,0,.3.656A2.643,2.643,0,0,0,2.288,10,4.571,4.571,0,0,0,4.756,9a10.845,10.845,0,0,0,3.6-4.2,14.535,14.535,0,0,0,.5-1.4,3.487,3.487,0,0,0,.095-1.55A2.536,2.536,0,0,0,7.82.179,1.929,1.929,0,0,0,6.685.036" transform="translate(5 4)" fill="#fff"/>
      </g>
    </g>
  </g>
</svg>
