<svg xmlns="http://www.w3.org/2000/svg" width="164.872" height="165.528" viewBox="0 0 164.872 165.528">
  <g id="UX_UI_Icon" data-name="UX/UI Icon" transform="translate(1 1)">
    <path id="Stroke_83" data-name="Stroke 83" d="M60.262,116H5.138A5.138,5.138,0,0,1,0,110.865V5.137A5.138,5.138,0,0,1,5.138,0H60.262A5.137,5.137,0,0,1,65.4,5.137V110.865A5.137,5.137,0,0,1,60.262,116Z" transform="translate(97.473 47.525)" fill="none" stroke="#818181" stroke-linecap="round" stroke-linejoin="round" stroke-miterlimit="10" stroke-width="2"/>
    <path id="Stroke_84" data-name="Stroke 84" d="M82.661,163.528H5.138A5.137,5.137,0,0,1,0,158.39V5.138A5.137,5.137,0,0,1,5.138,0h110.22a5.138,5.138,0,0,1,5.138,5.138V34.5" transform="translate(0 0)" fill="none" stroke="#818181" stroke-linecap="round" stroke-linejoin="round" stroke-miterlimit="10" stroke-width="2"/>
    <path id="Stroke_85" data-name="Stroke 85" d="M4.607,2.3A2.3,2.3,0,1,1,2.3,0,2.3,2.3,0,0,1,4.607,2.3Z" transform="translate(127.87 144.697)" fill="none" stroke="#818181" stroke-linecap="round" stroke-linejoin="round" stroke-miterlimit="10" stroke-width="2"/>
    <path id="Stroke_86" data-name="Stroke 86" d="M4.607,2.3A2.3,2.3,0,1,1,2.3,0,2.3,2.3,0,0,1,4.607,2.3Z" transform="translate(57.944 144.697)" fill="none" stroke="#818181" stroke-linecap="round" stroke-linejoin="round" stroke-miterlimit="10" stroke-width="2"/>
  </g>
</svg>
